<?xml version="1.0" encoding="UTF-8" standalone="no"?>
<!-- Created with Inkscape (http://www.inkscape.org/) -->

<svg
   width="32"
   height="32"
   viewBox="0 0 8.4666664 8.466667"
   version="1.1"
   id="svg8"
   sodipodi:docname="Nav_Eng.svg"
   inkscape:version="1.3.2 (091e20e, 2023-11-25, custom)"
   style="enable-background:new"
   xmlns:inkscape="http://www.inkscape.org/namespaces/inkscape"
   xmlns:sodipodi="http://sodipodi.sourceforge.net/DTD/sodipodi-0.dtd"
   xmlns="http://www.w3.org/2000/svg"
   xmlns:svg="http://www.w3.org/2000/svg"
   xmlns:rdf="http://www.w3.org/1999/02/22-rdf-syntax-ns#"
   xmlns:cc="http://creativecommons.org/ns#"
   xmlns:dc="http://purl.org/dc/elements/1.1/">
  <defs
     id="defs2">
    <marker
       inkscape:stockid="Arrow2Send"
       orient="auto"
       refY="0"
       refX="0"
       id="marker6036"
       style="overflow:visible"
       inkscape:isstock="true">
      <path
         id="path6034"
         style="fill:#000000;fill-opacity:1;fill-rule:evenodd;stroke:#000000;stroke-width:0.625;stroke-linejoin:round;stroke-opacity:1"
         d="M 8.7185878,4.0337352 -2.2072895,0.01601326 8.7185884,-4.0017078 c -1.7454984,2.3720609 -1.7354408,5.6174519 -6e-7,8.035443 z"
         transform="matrix(-0.3,0,0,-0.3,0.69,0)"
         inkscape:connector-curvature="0" />
    </marker>
    <marker
       inkscape:stockid="Arrow2Send"
       orient="auto"
       refY="0"
       refX="0"
       id="marker5612"
       style="overflow:visible"
       inkscape:isstock="true">
      <path
         id="path5610"
         style="fill:#000000;fill-opacity:1;fill-rule:evenodd;stroke:#000000;stroke-width:0.625;stroke-linejoin:round;stroke-opacity:1"
         d="M 8.7185878,4.0337352 -2.2072895,0.01601326 8.7185884,-4.0017078 c -1.7454984,2.3720609 -1.7354408,5.6174519 -6e-7,8.035443 z"
         transform="matrix(-0.3,0,0,-0.3,0.69,0)"
         inkscape:connector-curvature="0" />
    </marker>
    <marker
       inkscape:stockid="Arrow2Send"
       orient="auto"
       refY="0"
       refX="0"
       id="Arrow2Send"
       style="overflow:visible"
       inkscape:isstock="true">
      <path
         id="path873"
         style="fill:#000000;fill-opacity:1;fill-rule:evenodd;stroke:#000000;stroke-width:0.625;stroke-linejoin:round;stroke-opacity:1"
         d="M 8.7185878,4.0337352 -2.2072895,0.01601326 8.7185884,-4.0017078 c -1.7454984,2.3720609 -1.7354408,5.6174519 -6e-7,8.035443 z"
         transform="matrix(-0.3,0,0,-0.3,0.69,0)"
         inkscape:connector-curvature="0" />
    </marker>
    <marker
       inkscape:stockid="Arrow2Lend"
       orient="auto"
       refY="0"
       refX="0"
       id="Arrow2Lend"
       style="overflow:visible"
       inkscape:isstock="true">
      <path
         id="path861"
         style="fill:#000000;fill-opacity:1;fill-rule:evenodd;stroke:#000000;stroke-width:0.625;stroke-linejoin:round;stroke-opacity:1"
         d="M 8.7185878,4.0337352 -2.2072895,0.01601326 8.7185884,-4.0017078 c -1.7454984,2.3720609 -1.7354408,5.6174519 -6e-7,8.035443 z"
         transform="matrix(-1.1,0,0,-1.1,-1.1,0)"
         inkscape:connector-curvature="0" />
    </marker>
    <inkscape:path-effect
       effect="mirror_symmetry"
       start_point="2.1166667,292.76665"
       end_point="2.1166667,296.99998"
       center_point="2.1166667,294.88332"
       id="path-effect4840"
       is_visible="true"
       mode="vertical"
       discard_orig_path="false"
       fuse_paths="false"
       oposite_fuse="false" />
    <marker
       inkscape:stockid="Arrow1Lend"
       orient="auto"
       refY="0"
       refX="0"
       id="Arrow1Lend"
       style="overflow:visible"
       inkscape:isstock="true">
      <path
         id="path843"
         d="M 0,0 5,-5 -12.5,0 5,5 Z"
         style="fill:#000000;fill-opacity:1;fill-rule:evenodd;stroke:#000000;stroke-width:1.00000003pt;stroke-opacity:1"
         transform="matrix(-0.8,0,0,-0.8,-10,0)"
         inkscape:connector-curvature="0" />
    </marker>
    <inkscape:path-effect
       effect="mirror_symmetry"
       start_point="2.1166667,292.88384"
       end_point="2.1166667,296.97827"
       center_point="2.1166667,294.93105"
       id="path-effect889"
       is_visible="true"
       mode="vertical"
       discard_orig_path="false"
       fuse_paths="true"
       oposite_fuse="false" />
    <inkscape:path-effect
       effect="mirror_symmetry"
       start_point="2.1166667,292.76665"
       end_point="2.1166667,296.99998"
       center_point="2.1166667,294.88332"
       id="path-effect886"
       is_visible="true"
       mode="vertical"
       discard_orig_path="false"
       fuse_paths="false"
       oposite_fuse="false" />
    <inkscape:path-effect
       effect="mirror_symmetry"
       start_point="1.9734763,293.00921"
       end_point="1.9734763,297.24255"
       center_point="1.9734763,295.12588"
       id="path-effect878"
       is_visible="true"
       mode="vertical"
       discard_orig_path="false"
       fuse_paths="false"
       oposite_fuse="false" />
    <inkscape:path-effect
       effect="mirror_symmetry"
       start_point="2.004455,293.03283"
       end_point="2.004455,297.26617"
       center_point="2.004455,295.1495"
       id="path-effect874"
       is_visible="true"
       mode="vertical"
       discard_orig_path="false"
       fuse_paths="false"
       oposite_fuse="false" />
    <pattern
       patternUnits="userSpaceOnUse"
       width="6.0607472"
       height="6.002127"
       patternTransform="translate(8.0087294,0.85423519)"
       preserveAspectRatio="xMidYMid"
       id="pattern2">
      <ellipse
         style="fill:none;fill-rule:evenodd;stroke:#808080;stroke-width:2;stroke-linecap:round"
         id="ellipse2"
         cx="3.0303736"
         cy="3.0010636"
         rx="2.0169556"
         ry="2.0143061" />
    </pattern>
  </defs>
  <sodipodi:namedview
     id="base"
     pagecolor="#ffffff"
     bordercolor="#666666"
     borderopacity="1.0"
     inkscape:pageopacity="0.0"
     inkscape:pageshadow="2"
     inkscape:zoom="22.627417"
     inkscape:cx="12.131301"
     inkscape:cy="14.120039"
     inkscape:document-units="px"
     inkscape:current-layer="layer1"
     showgrid="false"
     units="px"
     inkscape:window-width="2533"
     inkscape:window-height="1708"
     inkscape:window-x="266"
     inkscape:window-y="143"
     inkscape:window-maximized="0"
     inkscape:pagecheckerboard="true"
     showguides="false"
     inkscape:showpageshadow="2"
     inkscape:deskcolor="#d1d1d1" />
  <metadata
     id="metadata5">
    <rdf:RDF>
      <cc:Work
         rdf:about="">
        <dc:format>image/svg+xml</dc:format>
        <dc:type
           rdf:resource="http://purl.org/dc/dcmitype/StillImage" />
      </cc:Work>
    </rdf:RDF>
  </metadata>
  <g
     inkscape:label="Layer 1"
     inkscape:groupmode="layer"
     id="layer1"
     transform="translate(0,-288.53332)">
    <path
       id="path2276"
       style="fill:none;stroke:#808080;stroke-width:0.132292;stroke-linecap:round;stroke-linejoin:round;stroke-miterlimit:4;stroke-dasharray:none"
       d="M 3.2359782 289.19943 A 3.7006164 3.7076702 0 0 0 2.4241414 289.54566 A 1.0004557 1.0004556 44.194161 0 1 2.3859009 290.91922 A 1.0004557 1.0004556 44.194161 0 1 1.0159587 290.95798 A 3.7006164 3.7076702 0 0 0 0.67954509 291.76775 A 1.0004557 1.0004556 0 0 1 1.6205729 292.76665 A 1.0004557 1.0004556 0 0 1 0.67231039 293.76349 A 3.7006164 3.7076702 0 0 0 1.0159587 294.57533 A 1.0004557 1.0004557 0 0 1 2.3859009 294.61409 A 1.0004557 1.0004557 0 0 1 2.4241414 295.98816 A 3.7006164 3.7076702 0 0 0 3.236495 296.32716 A 1.0004557 1.0004557 0 0 1 4.2333333 295.37941 A 1.0004557 1.0004557 0 0 1 5.2306885 296.33594 A 3.7006164 3.7076702 0 0 0 6.0456258 295.98816 A 1.0004557 1.0004556 44.194161 0 1 6.0807658 294.61409 A 1.0004557 1.0004556 44.194161 0 1 7.4517416 294.57636 A 3.7006164 3.7076702 0 0 0 7.7886719 293.76297 A 1.0004557 1.0004556 0 0 1 6.8460938 292.76665 A 1.0004557 1.0004556 0 0 1 7.792806 291.77033 A 3.7006164 3.7076702 0 0 0 7.448641 290.96005 A 1.0004557 1.0004557 0 0 1 6.0807658 290.91922 A 1.0004557 1.0004557 0 0 1 6.043042 289.54773 A 3.7006164 3.7076702 0 0 0 5.2306885 289.19943 A 1.0004557 1.0004557 0 0 1 4.2333333 290.15389 A 1.0004557 1.0004557 0 0 1 3.2359782 289.19943 z " />
    <path
       id="path2"
       style="fill:none;fill-rule:evenodd;stroke:#808080;stroke-width:0.132292;stroke-linecap:round;stroke-miterlimit:4;stroke-dasharray:none"
       d="m 5.5645184,292.76669 a 1.3311849,1.3311848 0 0 1 -1.331185,1.33119 1.3311849,1.3311848 0 0 1 -1.3311847,-1.33119 1.3311849,1.3311848 0 0 1 1.3311847,-1.33118 1.3311849,1.3311848 0 0 1 1.331185,1.33118 z" />
  </g>
</svg>
